<svg xmlns="http://www.w3.org/2000/svg" width="16" height="16" viewBox="0 0 16 16">
    <g fill="none" fill-rule="evenodd">
        <g>
            <g>
                <g>
                    <g>
                        <g>
                            <path fill="#FFF" d="M8 16c4.418 0 8-3.582 8-8s-3.582-8-8-8-8 3.582-8 8 3.582 8 8 8z" transform="translate(-1152 -164) translate(48 112) translate(824 48) translate(224 4) translate(56)"/>
                            <path fill="#4C4C4C" d="M8 0c4.418 0 8 3.582 8 8s-3.582 8-8 8-8-3.582-8-8 3.582-8 8-8zm0 1C4.134 1 1 4.134 1 8s3.134 7 7 7 7-3.134 7-7-3.134-7-7-7zm0 2c.552 0 1 .448 1 1v2.999L12 7c.552 0 1 .448 1 1s-.448 1-1 1l-3.001-.001L9 12c0 .552-.448 1-1 1s-1-.448-1-1l-.001-3.001L4 9c-.552 0-1-.448-1-1s.448-1 1-1l3-.001V4c0-.552.448-1 1-1z" transform="translate(-1152 -164) translate(48 112) translate(824 48) translate(224 4) translate(56)"/>
                        </g>
                    </g>
                </g>
            </g>
        </g>
    </g>
</svg>
