<svg xmlns="http://www.w3.org/2000/svg" width="32" height="32" viewBox="0 0 32 32">
    <g fill="none" fill-rule="evenodd">
        <g>
            <g>
                <g transform="translate(-152 -648) translate(48 112) translate(104 536)">
                    <circle cx="16" cy="13.357" r="12" fill="#FFF"/>
                    <path fill="#787878" d="M4.547 17.288c1.63 4.742 6.13 8.15 11.426 8.15s9.796-3.408 11.427-8.15h3.616v.448c-1.19.08-2.38-.004-2.804.98-2.065 4.709-6.768 7.998-12.239 7.998-5.47 0-10.173-3.29-12.238-7.998-.424-.984-1.615-.9-2.804-.98v-.448zm23.876-5.781l2.738 2.738v-2.738H32v3.738h-1.025L28.19 12.46v2.784h-.839v-3.738h1.07zm-4.49 0l2.383 3.738h-.988l-.417-.666h-2.805l-.416.666h-.988l2.382-3.738h.85zm-16.641 0v3.738h-.84v-3.738h.84zm-6.221 0l2.738 2.738v-2.738h.839v3.738H3.623L.839 12.46v2.784H0v-3.738h1.07zm18.503 0v.784H16.19c-.181 0-.328.147-.328.328 0 .181.147.328.328.328h2.507c.635 0 1.15.51 1.15 1.14 0 .63-.515 1.14-1.15 1.14h-3.537v-.766h3.464c.202 0 .365-.164.365-.365 0-.201-.163-.365-.365-.365h-2.48c-.614 0-1.112-.498-1.112-1.112 0-.614.498-1.112 1.112-1.112h3.429zm-6.182 0v.784h-3.383c-.18 0-.328.147-.328.328 0 .181.147.328.328.328h2.508c.634 0 1.149.51 1.149 1.14 0 .63-.515 1.14-1.15 1.14H8.98v-.766h3.465c.201 0 .365-.164.365-.365 0-.201-.164-.365-.365-.365h-2.48c-.614 0-1.112-.498-1.112-1.112 0-.614.498-1.112 1.112-1.112h3.428zm10.117.83l-.946 1.513h1.892l-.946-1.513zM15.973 0c5.471 0 10.174 3.289 12.239 7.998.423.984 1.614.9 2.804.98v.449H27.4c-1.63-4.743-6.13-8.15-11.427-8.15-5.296 0-9.796 3.407-11.426 8.15H.93v-.449c1.19-.08 2.38.004 2.804-.98C5.8 3.289 10.502 0 15.973 0z"/>
                </g>
            </g>
        </g>
    </g>
</svg>
